<?xml version="1.0" encoding="utf-8"?>
<!-- Generator: Adobe Illustrator 27.2.0, SVG Export Plug-In . SVG Version: 6.00 Build 0)  -->
<svg version="1.1" id="Layer_1" xmlns="http://www.w3.org/2000/svg" xmlns:xlink="http://www.w3.org/1999/xlink" x="0px" y="0px"
	 viewBox="0 0 121.3 30" style="enable-background:new 0 0 121.3 30;" xml:space="preserve">
<style type="text/css">
	.st0{display:none;}
	.st1{display:inline;fill:#534741;}
	.st2{fill:#FCEE21;}
	.st3{fill:#FFFFFF;}
</style>
<g id="Layer_1_00000014593695927960887190000012148124456101210551_" class="st0">
	<rect x="-1.3" y="-0.8" class="st1" width="123.7" height="31.7"/>
</g>
<g id="Layer_2_00000115496333718689393830000008590281990048381110_">
	<g>
		<g>
			<path class="st2" d="M73.7,27.1c0,0.6-0.2,1-0.6,1.4S72.3,29,71.7,29h-7c-0.6,0-1-0.2-1.4-0.5s-0.5-0.8-0.5-1.4V3.8
				c0-0.6,0.2-1,0.5-1.4c0.4-0.4,0.8-0.5,1.4-0.5h7c0.6,0,1,0.2,1.4,0.5c0.4,0.4,0.6,0.8,0.6,1.4v6.3h-2.4v-6h-6v22.8h6v-6.7h2.4
				V27.1z"/>
			<path class="st2" d="M89.4,27.1c0,0.6-0.2,1-0.5,1.4S88,29,87.4,29h-7.6c-0.6,0-1-0.2-1.4-0.5s-0.5-0.8-0.5-1.4V3.8
				c0-0.6,0.2-1,0.5-1.4c0.4-0.4,0.8-0.5,1.4-0.5h7.6c0.6,0,1,0.2,1.4,0.5c0.4,0.4,0.5,0.8,0.5,1.4L89.4,27.1L89.4,27.1z M87,26.9
				V4.1h-6.6v22.8H87z"/>
			<path class="st2" d="M104.9,24.1c0,1.4-0.5,2.6-1.4,3.5S101.4,29,100,29h-6.2V1.9h6.2c1.4,0,2.6,0.5,3.6,1.4
				c0.9,0.9,1.4,2.1,1.4,3.5L104.9,24.1L104.9,24.1z M102.5,23.9V7c0-0.9-0.3-1.6-0.8-2.1c-0.6-0.6-1.3-0.8-2.2-0.8h-3.3v22.8h3.2
				c0.5,0,0.9-0.1,1.3-0.2s0.7-0.3,1-0.6c0.3-0.3,0.5-0.6,0.6-0.9C102.4,24.8,102.5,24.3,102.5,23.9z"/>
			<path class="st2" d="M118,29h-8.9V1.9h8.8V4h-6.4v10.1h5.8v2.2h-5.8v10.6h6.5V29z"/>
		</g>
		<g>
			<path class="st3" d="M11.8,5.2h1.4L3.3,26.9H1.9L11.8,5.2z"/>
			<path class="st3" d="M28.5,19.9c0,2.1-0.7,3.8-2.2,5.3c-1.5,1.5-3.2,2.2-5.3,2.2s-3.8-0.7-5.3-2.2s-2.2-3.2-2.2-5.3v-7.2
				c0-2.1,0.7-3.8,2.2-5.3S19,5.2,21,5.2c2.1,0,3.8,0.7,5.3,2.2s2.2,3.2,2.2,5.3V19.9z M27.2,12.6c0-1.7-0.6-3.2-1.8-4.4
				S22.7,6.5,21,6.5s-3.2,0.6-4.4,1.8s-1.8,2.7-1.8,4.4v7.2c0,1.7,0.6,3.2,1.8,4.4c1.2,1.2,2.7,1.8,4.4,1.8c1.7,0,3.2-0.6,4.4-1.8
				c1.2-1.2,1.8-2.7,1.8-4.4C27.2,19.9,27.2,12.6,27.2,12.6z"/>
			<path class="st3" d="M45.5,19.9c0,2.1-0.7,3.8-2.2,5.3c-1.5,1.5-3.2,2.2-5.3,2.2s-3.8-0.7-5.3-2.2s-2.2-3.2-2.2-5.3v-7.2
				c0-2.1,0.7-3.8,2.2-5.3s3.2-2.2,5.3-2.2s3.8,0.7,5.3,2.2s2.2,3.2,2.2,5.3V19.9z M44.2,12.6c0-1.7-0.6-3.2-1.8-4.4
				S39.7,6.4,38,6.4S34.8,7,33.6,8.2s-1.8,2.7-1.8,4.4v7.2c0,1.7,0.6,3.2,1.8,4.4c1.2,1.2,2.7,1.8,4.4,1.8s3.2-0.6,4.4-1.8
				c1.2-1.2,1.8-2.7,1.8-4.4V12.6z"/>
			<path class="st3" d="M55.7,5.2h1.4L47.2,27h-1.4L55.7,5.2z"/>
		</g>
	</g>
</g>
</svg>
