<?xml version="1.0" standalone="no"?>
<!DOCTYPE svg PUBLIC "-//W3C//DTD SVG 20010904//EN"
 "http://www.w3.org/TR/2001/REC-SVG-20010904/DTD/svg10.dtd">
<svg version="1.0" xmlns="http://www.w3.org/2000/svg"
 width="450.000000pt" height="450.000000pt" viewBox="0 0 450.000000 450.000000"
 preserveAspectRatio="xMidYMid meet">
<metadata>
Created by potrace 1.11, written by Peter Selinger 2001-2013
</metadata>
<g transform="translate(0.000000,450.000000) scale(0.100000,-0.100000)"
fill="#000000" stroke="none">
<path d="M1286 3812 c-7 -12 -546 -1203 -546 -1208 0 -2 17 -4 38 -4 l39 0
243 538 c134 295 258 570 276 610 l33 72 -39 0 c-21 0 -41 -4 -44 -8z"/>
<path d="M1690 3805 c-30 -9 -73 -26 -95 -39 -59 -35 -142 -128 -173 -193
l-27 -58 0 -315 0 -315 28 -57 c62 -126 178 -215 311 -239 185 -32 367 64 453
239 l28 57 0 315 0 315 -33 67 c-43 87 -138 177 -219 208 -76 29 -199 35 -273
15z m248 -87 c68 -25 145 -100 180 -175 l27 -58 0 -285 c0 -272 -1 -287 -22
-332 -29 -63 -106 -144 -168 -176 -44 -24 -61 -27 -150 -27 -89 0 -106 3 -150
26 -66 36 -147 122 -171 184 -17 45 -19 77 -19 330 l0 280 27 57 c80 171 263
244 446 176z"/>
<path d="M2640 3805 c-30 -9 -73 -26 -95 -39 -59 -35 -142 -128 -173 -193
l-27 -58 0 -315 0 -315 26 -55 c35 -74 116 -160 186 -198 233 -124 525 -2 598
250 14 49 16 101 13 346 l-3 287 -33 67 c-43 87 -138 177 -219 208 -76 29
-199 35 -273 15z m232 -81 c87 -30 158 -98 201 -192 21 -45 22 -60 22 -332 0
-272 -1 -287 -22 -332 -29 -63 -106 -144 -168 -176 -44 -24 -61 -27 -150 -27
-89 0 -106 3 -150 26 -66 36 -147 122 -171 184 -17 45 -19 77 -19 330 l0 280
33 67 c78 159 256 231 424 172z"/>
<path d="M3721 3778 c-10 -24 -132 -293 -271 -598 -138 -305 -254 -561 -257
-568 -4 -10 5 -13 36 -10 l42 3 265 585 c146 322 270 595 275 608 8 21 6 22
-32 22 -37 0 -41 -3 -58 -42z"/>
<path d="M785 2408 c-11 -6 -28 -20 -37 -32 -16 -19 -18 -72 -18 -714 l0 -694
29 -29 29 -29 245 0 245 0 26 31 26 31 0 214 0 214 -65 0 -65 0 0 -185 0 -185
-170 0 -170 0 2 633 3 632 168 3 167 2 0 -170 0 -170 65 0 65 0 0 196 c0 115
-4 203 -10 215 -24 44 -56 49 -292 49 -143 0 -230 -5 -243 -12z"/>
<path d="M1625 2409 c-11 -7 -28 -21 -37 -33 -16 -19 -18 -72 -18 -714 l0
-694 29 -29 29 -29 259 0 c281 0 289 1 312 57 8 21 11 211 9 710 l-3 683 -28
27 -27 28 -253 2 c-173 2 -258 -1 -272 -8z m445 -744 l0 -635 -185 0 -185 0 0
628 c0 346 3 632 7 635 3 4 87 7 185 7 l178 0 0 -635z"/>
<path d="M2450 1666 l0 -756 213 0 c210 0 214 0 266 26 61 31 114 96 130 161
15 56 15 1084 1 1135 -16 57 -70 120 -130 153 l-55 30 -212 3 -213 4 0 -756z
m371 623 c41 -14 75 -43 97 -84 15 -27 17 -85 17 -545 0 -572 2 -552 -67 -602
-30 -21 -46 -23 -160 -26 l-128 -4 0 630 c0 346 3 632 7 635 11 12 198 8 234
-4z"/>
<path d="M3310 1665 l0 -755 245 0 245 0 0 60 0 60 -180 0 -180 0 0 290 0 290
165 0 165 0 0 60 0 60 -162 2 -163 3 -3 283 -2 282 180 0 180 0 0 60 0 60
-245 0 -245 0 0 -755z"/>
</g>
</svg>
